Coordinates
version=1
nRows=13
nColumns=63
inDegrees=yes

Units are S.I. units (second, meters, Newtons, ...)
If the header above contains a line with 'inDegrees', this indicates whether rotational values are in degrees (yes) or radians (no).

endheader
time	pelvis_tilt	pelvis_list	pelvis_rotation	pelvis_tx	pelvis_ty	pelvis_tz	hip_flexion_r	hip_adduction_r	hip_rotation_r	knee_angle_r	knee_angle_r_beta	ankle_angle_r	subtalar_angle_r	mtp_angle_r	hip_flexion_l	hip_adduction_l	hip_rotation_l	knee_angle_l	knee_angle_l_beta	ankle_angle_l	subtalar_angle_l	mtp_angle_l	L5_S1_Flex_Ext	L5_S1_Lat_Bending	L5_S1_axial_rotation	L4_L5_Flex_Ext	L4_L5_Lat_Bending	L4_L5_axial_rotation	L3_L4_Flex_Ext	L3_L4_Lat_Bending	L3_L4_axial_rotation	L2_L3_Flex_Ext	L2_L3_Lat_Bending	L2_L3_axial_rotation	L1_L2_Flex_Ext	L1_L2_Lat_Bending	L1_L2_axial_rotation	L1_T12_Flex_Ext	L1_T12_Lat_Bending	L1_T12_axial_rotation	Abs_r3	Abs_r2	Abs_r1	Abs_t1	Abs_t2	neck_flexion	neck_bending	neck_rotation	arm_flex_r	arm_add_r	arm_rot_r	elbow_flex_r	pro_sup_r	wrist_flex_r	wrist_dev_r	arm_flex_l	arm_add_l	arm_rot_l	elbow_flex_l	pro_sup_l	wrist_flex_l	wrist_dev_l
3.568966	-3.683205	-23.116422	87.340230	0.166655	0.819385	0.482438	24.133996	-0.469747	2.535079	4.493883	0.078433	29.557422	0.907962	0.000000	26.090798	1.324463	12.886086	7.968797	0.139082	26.739498	-4.615269	0.000000	0.179753	-0.092018	-0.699053	0.333820	-0.122384	-0.742744	0.295317	-0.223733	-0.742744	0.205440	-0.223733	-0.611672	0.166919	-0.187644	-0.567981	0.102711	-0.142536	-0.524290	1.283960	-1.040929	-3.887924	0.000000	0.000000	27.866234	6.375832	16.865113	-8.663516	-16.090985	-1.730688	115.937491	82.943831	-5.229542	12.513832	16.288269	-12.277265	-4.104457	128.699059	76.710540	-3.661105	21.313102
3.586207	-3.608721	-23.183625	87.386790	0.166101	0.819394	0.482878	24.232369	-0.447363	2.388461	4.399477	0.076785	29.641951	1.390515	0.000000	26.335207	1.348191	12.778111	8.117397	0.141675	27.059545	-4.668244	0.000000	0.180006	-0.074414	-0.826720	0.334289	-0.098971	-0.878390	0.295731	-0.180930	-0.878390	0.205729	-0.180930	-0.723380	0.167153	-0.151745	-0.671710	0.102855	-0.115267	-0.620040	1.285763	-0.841786	-4.597967	0.000000	0.000000	27.872735	6.727867	17.748101	-8.598392	-16.173657	-1.297247	116.184742	82.826658	-5.690620	12.542442	15.144756	-12.625743	-4.321874	129.164676	76.868247	-2.664778	21.216867
3.603448	-3.569950	-23.241480	87.409023	0.165695	0.819464	0.483619	24.452081	-0.434778	2.321351	4.509744	0.078710	29.747684	1.692753	0.000000	26.604800	1.387319	12.676369	8.303422	0.144922	27.303980	-4.687792	0.000000	0.177670	-0.072163	-0.952396	0.329950	-0.095977	-1.011921	0.291894	-0.175457	-1.011921	0.203059	-0.175457	-0.833347	0.164984	-0.147155	-0.773822	0.101520	-0.111781	-0.714297	1.269077	-0.816324	-5.296942	0.000000	0.000000	27.876409	7.291972	18.211409	-7.059874	-16.187944	-0.873423	116.692459	82.363732	-6.071788	12.667951	13.408249	-13.213387	-3.858502	129.125231	77.365004	-1.715827	21.432633
3.620690	-3.610239	-23.272230	87.372802	0.165509	0.819582	0.484583	24.766950	-0.457483	2.415024	4.824323	0.084200	29.887830	1.734506	0.000000	26.848622	1.471842	12.635800	8.487200	0.148130	27.414712	-4.765352	0.000000	0.172313	-0.093210	-1.044518	0.320003	-0.123969	-1.109800	0.283093	-0.226630	-1.109800	0.196937	-0.226630	-0.913953	0.160010	-0.190073	-0.848670	0.098460	-0.144382	-0.783388	1.230816	-1.054406	-5.809293	0.000000	0.000000	27.881771	8.012487	17.964882	-4.461161	-16.163393	-0.609843	117.571198	81.334392	-6.410388	13.140839	11.196232	-14.053322	-2.647063	128.826738	78.358557	-1.126425	22.046272
3.637931	-3.718224	-23.292727	87.290946	0.165482	0.819697	0.485723	25.179509	-0.524302	2.554596	5.340752	0.093214	30.079833	1.637860	0.000000	27.089746	1.590249	12.572412	8.697669	0.151803	27.410521	-4.771080	0.000000	0.166665	-0.133772	-1.090094	0.309513	-0.177917	-1.158225	0.273813	-0.325253	-1.158225	0.190481	-0.325253	-0.953832	0.154765	-0.272788	-0.885701	0.095232	-0.207213	-0.817570	1.190469	-1.513257	-6.062775	0.000000	0.000000	27.889224	8.828126	17.090674	-1.331816	-16.145554	-0.562386	118.907651	80.090289	-6.774984	14.235226	8.663018	-15.010373	-0.981807	128.458920	79.784145	-0.342899	22.996045
3.655172	-3.866572	-23.329585	87.209312	0.165493	0.819750	0.486911	25.663790	-0.634016	2.684549	5.993385	0.104604	30.292965	1.410716	0.000000	27.349260	1.732786	12.461401	8.944063	0.156103	27.304494	-4.635300	0.000000	0.164330	-0.186501	-1.089785	0.305177	-0.248047	-1.157896	0.269978	-0.453460	-1.157896	0.187813	-0.453460	-0.953562	0.152597	-0.380314	-0.885450	0.093898	-0.288891	-0.817339	1.173792	-2.109742	-6.061057	0.000000	0.000000	27.892761	9.699578	15.813376	1.748372	-16.131209	-0.752566	120.606718	78.674767	-7.137000	15.883751	6.043154	-15.953127	0.895752	128.197100	81.602205	0.595094	24.110651
3.672414	-4.041436	-23.378693	87.076659	0.165503	0.819719	0.488040	26.209902	-0.765743	2.709730	6.784215	0.118407	30.557931	1.246439	0.000000	27.599143	1.872655	12.279448	9.209509	0.160736	27.123601	-4.405678	0.000000	0.163653	-0.245839	-1.012831	0.303920	-0.326966	-1.076133	0.268866	-0.597733	-1.076133	0.187039	-0.597733	-0.886227	0.151968	-0.501315	-0.822925	0.093511	-0.380805	-0.759623	1.168957	-2.780982	-5.633063	0.000000	0.000000	27.906958	10.411422	14.044766	4.237377	-16.105556	-1.265355	122.482529	77.441972	-7.672250	17.964136	3.794187	-16.733719	2.879783	128.019395	83.364856	1.640576	25.316478
3.689655	-4.199273	-23.456155	86.937999	0.165349	0.819567	0.489028	26.774769	-0.894459	2.659119	7.624311	0.133069	30.798485	1.044377	0.000000	27.846068	1.989891	12.037034	9.483343	0.165516	26.904791	-4.077608	0.000000	0.166638	-0.299415	-0.878799	0.309464	-0.398222	-0.933723	0.273770	-0.727998	-0.933723	0.190451	-0.727998	-0.768949	0.154740	-0.610567	-0.714024	0.095217	-0.463794	-0.659099	1.190279	-3.387045	-4.887614	0.000000	0.000000	27.921698	10.899439	12.193902	5.910570	-16.024646	-1.957952	124.100250	76.312924	-8.308530	20.041168	2.207735	-17.226710	4.673945	127.922636	84.777134	2.668792	26.481731
3.706897	-4.315455	-23.530413	86.788328	0.164970	0.819349	0.489834	27.315186	-1.001122	2.436645	8.501118	0.148373	31.025799	0.963733	0.000000	28.043110	2.067129	11.775063	9.740548	0.170005	26.674135	-3.736958	0.000000	0.168207	-0.339876	-0.706159	0.312376	-0.452035	-0.750294	0.276346	-0.826375	-0.750294	0.192243	-0.826375	-0.617889	0.156197	-0.693076	-0.573754	0.096113	-0.526468	-0.529619	1.201482	-3.844748	-3.927446	0.000000	0.000000	27.932278	11.132195	10.507599	6.731811	-15.895992	-2.631277	125.038177	75.712213	-9.173524	21.599587	1.524651	-17.389739	6.031942	127.857837	85.501880	3.513685	27.353290
3.724138	-4.377248	-23.609750	86.651065	0.164298	0.819086	0.490428	27.787379	-1.086650	1.928736	9.309521	0.162482	31.215637	1.188166	0.000000	28.208484	2.097322	11.380235	9.986300	0.174294	26.515141	-3.203838	0.000000	0.170606	-0.362383	-0.527233	0.316832	-0.481969	-0.560185	0.280288	-0.881098	-0.560185	0.194985	-0.881098	-0.461329	0.158424	-0.738971	-0.428377	0.097484	-0.561331	-0.395425	1.218619	-4.099347	-2.932310	0.000000	0.000000	27.933638	11.140490	9.212162	6.720536	-15.791409	-3.117038	125.047448	75.523896	-10.176079	22.338639	1.785429	-17.263213	6.725214	127.846863	84.866123	4.210854	27.897447
3.741379	-4.378116	-23.673632	86.524450	0.163364	0.818833	0.490805	28.160063	-1.127788	1.323072	10.014640	0.174788	31.329164	1.497610	0.000000	28.300028	2.083022	11.070769	10.165024	0.177413	26.363081	-2.791235	0.000000	0.171300	-0.365788	-0.368508	0.318121	-0.486498	-0.391540	0.281429	-0.889378	-0.391540	0.195779	-0.889378	-0.322444	0.159069	-0.745915	-0.299413	0.097881	-0.566606	-0.276381	1.223579	-4.137870	-2.049530	0.000000	0.000000	27.926166	10.984193	8.437618	5.941408	-15.802722	-3.242098	124.086472	75.764688	-11.329633	22.023418	2.811520	-16.929748	6.631587	128.032071	83.540820	4.706275	28.014526
3.758621	-4.340391	-23.706501	86.388265	0.162231	0.818627	0.490994	28.402218	-1.130443	0.785461	10.555597	0.184230	31.338172	1.750805	0.000000	28.303066	2.042723	10.902132	10.256297	0.179006	26.215271	-2.607649	0.000000	0.169393	-0.353573	-0.248789	0.314579	-0.470252	-0.264339	0.278295	-0.859678	-0.264339	0.193599	-0.859678	-0.217691	0.157298	-0.721007	-0.202141	0.096791	-0.547685	-0.186592	1.209955	-3.999692	-1.383692	0.000000	0.000000	27.911299	10.735658	8.215437	4.463292	-15.966344	-2.951320	122.353109	76.427026	-12.474495	20.819875	4.247802	-16.489150	5.730698	128.550447	81.800823	5.115006	27.802260
3.775862	-4.281301	-23.699431	86.233273	0.160987	0.818489	0.491018	28.491644	-1.105322	0.353207	10.876970	0.189839	31.255417	1.964775	0.000000	28.209514	1.985729	10.884898	10.239897	0.178720	26.083092	-2.649148	0.000000	0.165168	-0.329191	-0.178132	0.306733	-0.437824	-0.189265	0.271354	-0.800395	-0.189265	0.188770	-0.800395	-0.155865	0.153375	-0.671287	-0.144732	0.094377	-0.509917	-0.133599	1.179778	-3.723877	-0.990715	0.000000	0.000000	27.893166	10.431971	8.523605	2.382455	-16.264352	-2.290019	120.181895	77.486237	-13.373889	19.030137	5.671297	-16.022309	4.100745	129.431404	79.978638	5.605399	27.324411
